<svg width="39px" height="19px" viewBox="0 0 39 19" version="1.1" xmlns="http://www.w3.org/2000/svg" xmlns:xlink="http://www.w3.org/1999/xlink">
    <g id="Page-1" stroke="none" stroke-width="1" fill="none" fill-rule="evenodd">
        <g id="5.8-Get-Help" transform="translate(-45.000000, -209.000000)" fill="#FFFFFF" fill-rule="nonzero">
            <g id="Messages" transform="translate(40.000000, 190.000000)">
                <g id="Message-1" transform="translate(1.000000, 0.000000)">
                    <path d="M20.7194606,37.1629818 C20.1927478,35.2337715 21.0565567,32.5706226 22.552421,31.4382601 C23.3740928,30.8091698 24.7646145,30.2849279 25.5652179,30.2849279 C25.860177,30.2849279 26.5765064,30.5155943 27.1453562,30.8091698 C27.7142059,31.1027452 28.3673297,31.3334117 28.5780148,31.3334117 C28.8097684,31.3334117 29.6525088,31.6060175 30.4741807,31.962502 C32.138593,32.675471 32.3282096,32.7174103 32.3282096,32.3189865 C32.3282096,31.8995929 31.6750858,31.375351 30.8323454,31.1027452 C29.989605,30.8091698 29.3786182,30.3268672 29.3786182,29.9284434 C29.3786182,29.4671105 30.5795233,28.8799595 33.1498815,28.0202028 C35.235664,27.3491731 35.9730619,26.9297796 35.6570342,26.6152345 C35.6148972,26.5732951 34.8774993,26.7410525 34.0136904,27.0136583 C32.054319,27.6427486 31.2326471,27.747597 31.1273046,27.4120822 C31.064099,27.2652944 31.1273046,27.1394764 31.2537156,27.1394764 C31.5697433,27.1394764 35.2988695,25.5248113 35.5516917,25.2731752 C35.6570342,25.1683268 35.6991712,24.9795997 35.6148972,24.8747513 C35.5516917,24.7489333 34.5404032,25.0425087 33.1498815,25.5877203 C30.6427288,26.5732951 30.3477697,26.6362041 30.4741807,26.2797196 C30.5163178,26.1539016 31.4011952,25.6925687 32.4335522,25.2522055 C33.4869777,24.8118423 34.3297181,24.3295397 34.3297181,24.1617823 C34.3297181,23.7843281 33.8662109,23.8891765 31.8436339,24.7489333 C29.1047276,25.8812958 28.4726723,25.6506293 30.7480714,24.3295397 C31.5065377,23.8891765 32.1807301,23.4488133 32.2439356,23.3439649 C32.4967577,22.9036017 31.5697433,23.2181469 29.0625906,24.4343881 C26.9136025,25.4619023 26.1551362,25.9442048 25.1017107,26.971719 C20.487707,31.4801994 16.9271288,32.73838 12.2077825,31.5431084 C9.70062982,30.8930485 5.73974993,28.6283234 4.2228172,26.9507493 C3.84358402,26.5313558 3.84358402,26.5103861 5.0655576,25.0005694 C7.34095669,22.2325721 10.4169592,20.0726954 13.261208,19.2758477 C15.6419497,18.5838484 18.8232947,19.191969 23.1212707,21.1211792 C24.5117924,21.7712392 24.743546,21.9389966 24.743546,22.4003295 C24.743546,23.5746314 22.5734895,24.0149946 21.4357899,23.0713591 C21.1197623,22.7987533 20.4455699,22.3793598 19.9609942,22.1277237 C19.4764185,21.8970573 18.5283355,21.3099063 17.8752117,20.8485734 C17.0956768,20.3033618 16.5900326,20.0726954 16.4636215,20.1985135 C16.1686624,20.4920889 16.8007177,21.393785 17.5381156,21.7712392 C18.3387189,22.169663 18.9286372,22.8616624 18.7811577,23.2391165 C18.6126096,23.6375404 17.4959785,23.9520855 15.1573739,24.2037217 C12.2499195,24.5392365 11.8917549,24.6231152 11.8917549,24.9376603 C11.8917549,25.1683268 12.3131251,25.2102661 14.209291,25.1054178 C15.8947718,25.0215391 16.5268271,25.0425087 16.5268271,25.2312358 C16.5268271,25.3570539 16.5057586,25.4619023 16.4636215,25.4619023 C15.8737033,25.4619023 11.7653438,26.3426287 11.5967957,26.5103861 C11.0911515,27.0136583 11.8917549,27.0555977 14.2724965,26.6571738 C16.4636215,26.3006893 17.2431564,26.2797196 16.9060603,26.6152345 C16.8639232,26.6781435 15.9369088,26.8878403 14.8624148,27.1185067 C12.9030433,27.5169306 12.1656455,27.8524454 12.7555638,28.0831118 C12.9241119,28.1460209 14.0407429,28.0202028 15.2627165,27.7895364 C16.4846901,27.5588699 17.5381156,27.4330519 17.6434581,27.4959609 C17.9594858,27.684688 17.5381156,27.9572938 16.1475939,28.4186266 C14.5253186,28.9428686 14.5463871,28.9218989 14.7149352,29.1945047 C14.8202778,29.3832318 16.0633199,29.1525653 19.581761,28.2718389 C21.3093789,27.8524454 22.8052431,26.8039616 24.1746962,25.1054178 C25.9655196,22.8616624 27.9880966,21.4776637 30.5373863,20.743725 C32.4756892,20.1775438 35.8466508,20.3872405 38.374872,21.2260276 C40.6713396,22.0019056 42.8413961,23.0503895 42.9888757,23.469783 C43.1152868,23.8052978 42.1461353,25.8393564 41.0084358,27.5588699 C40.5870656,28.1879602 39.5336401,29.4251711 38.6487626,30.3058975 C35.193527,33.7658942 31.021962,34.6256509 25.6705604,32.9900161 L24.2589703,32.5496529 L23.3951614,33.1577735 C22.3206673,33.9126819 21.3515159,35.6951044 21.3093789,37.0581334 C21.2672418,38.2743746 21.0354882,38.316314 20.7194606,37.1629818 Z" id="Path"></path>
                </g>
            </g>
        </g>
    </g>
</svg>
